<mxfile host="app.diagrams.net" modified="2020-08-07T12:20:15.184Z" agent="5.0 (Windows NT 10.0; Win64; x64) AppleWebKit/537.36 (KHTML, like Gecko) Chrome/84.0.4147.105 Safari/537.36" etag="AoM8iBXx7od3WAzT3gnE" version="13.6.0" type="github">
  <diagram id="DBfYc7nm3WxSIxewp0Nf" name="Page-1">
    <mxGraphModel dx="1038" dy="580" grid="1" gridSize="10" guides="1" tooltips="1" connect="1" arrows="1" fold="1" page="1" pageScale="1" pageWidth="850" pageHeight="1100" math="0" shadow="0">
      <root>
        <mxCell id="0" />
        <mxCell id="1" parent="0" />
        <mxCell id="Y1mwOoL4pYymV-HB9AZI-2" value="Payment Settlement Service&amp;nbsp;" style="ellipse;whiteSpace=wrap;html=1;" parent="1" vertex="1">
          <mxGeometry x="355" y="270" width="190" height="60" as="geometry" />
        </mxCell>
        <mxCell id="Y1mwOoL4pYymV-HB9AZI-3" value="Customer Reporting Service&amp;nbsp;" style="ellipse;whiteSpace=wrap;html=1;" parent="1" vertex="1">
          <mxGeometry x="355" y="400" width="190" height="60" as="geometry" />
        </mxCell>
        <mxCell id="Y1mwOoL4pYymV-HB9AZI-4" value="Postman Actor" style="shape=umlActor;verticalLabelPosition=bottom;verticalAlign=top;html=1;outlineConnect=0;" parent="1" vertex="1">
          <mxGeometry x="75" y="260" width="30" height="60" as="geometry" />
        </mxCell>
        <mxCell id="Y1mwOoL4pYymV-HB9AZI-13" value="" style="edgeStyle=orthogonalEdgeStyle;rounded=0;orthogonalLoop=1;jettySize=auto;html=1;" parent="1" source="Y1mwOoL4pYymV-HB9AZI-10" target="Y1mwOoL4pYymV-HB9AZI-12" edge="1">
          <mxGeometry relative="1" as="geometry" />
        </mxCell>
        <mxCell id="Y1mwOoL4pYymV-HB9AZI-10" value="Docker Container" style="swimlane;" parent="1" vertex="1">
          <mxGeometry x="320" y="240" width="250" height="100" as="geometry" />
        </mxCell>
        <mxCell id="Y1mwOoL4pYymV-HB9AZI-11" value="Docker Container" style="swimlane;" parent="1" vertex="1">
          <mxGeometry x="320" y="370" width="250" height="100" as="geometry" />
        </mxCell>
        <mxCell id="Y1mwOoL4pYymV-HB9AZI-12" value="Payment Tax Order DB" style="shape=cylinder;whiteSpace=wrap;html=1;boundedLbl=1;backgroundOutline=1;fontStyle=1;startSize=23;" parent="1" vertex="1">
          <mxGeometry x="675" y="250" width="95" height="80" as="geometry" />
        </mxCell>
        <mxCell id="Y1mwOoL4pYymV-HB9AZI-14" value="" style="endArrow=classic;html=1;entryX=0.15;entryY=0.05;entryDx=0;entryDy=0;exitX=1;exitY=0.5;exitDx=0;exitDy=0;entryPerimeter=0;" parent="1" source="Y1mwOoL4pYymV-HB9AZI-5" target="Y1mwOoL4pYymV-HB9AZI-12" edge="1">
          <mxGeometry width="50" height="50" relative="1" as="geometry">
            <mxPoint x="400" y="350" as="sourcePoint" />
            <mxPoint x="450" y="300" as="targetPoint" />
          </mxGeometry>
        </mxCell>
        <mxCell id="Y1mwOoL4pYymV-HB9AZI-15" value="" style="endArrow=classic;html=1;entryX=0.15;entryY=0.95;entryDx=0;entryDy=0;entryPerimeter=0;" parent="1" target="Y1mwOoL4pYymV-HB9AZI-12" edge="1">
          <mxGeometry width="50" height="50" relative="1" as="geometry">
            <mxPoint x="570" y="430" as="sourcePoint" />
            <mxPoint x="450" y="300" as="targetPoint" />
          </mxGeometry>
        </mxCell>
        <mxCell id="Y1mwOoL4pYymV-HB9AZI-17" value="Tax Order" style="text;html=1;strokeColor=none;fillColor=none;align=center;verticalAlign=middle;whiteSpace=wrap;rounded=0;" parent="1" vertex="1">
          <mxGeometry x="660" y="370" width="60" height="20" as="geometry" />
        </mxCell>
        <mxCell id="Y1mwOoL4pYymV-HB9AZI-18" value="Tax Order" style="text;html=1;strokeColor=none;fillColor=none;align=center;verticalAlign=middle;whiteSpace=wrap;rounded=0;" parent="1" vertex="1">
          <mxGeometry x="600" y="290" width="60" height="20" as="geometry" />
        </mxCell>
        <mxCell id="Y1mwOoL4pYymV-HB9AZI-20" value="Upload File" style="text;html=1;strokeColor=none;fillColor=none;align=center;verticalAlign=middle;whiteSpace=wrap;rounded=0;" parent="1" vertex="1">
          <mxGeometry y="240" width="80" height="20" as="geometry" />
        </mxCell>
        <mxCell id="Y1mwOoL4pYymV-HB9AZI-21" value="" style="endArrow=classic;html=1;entryX=0;entryY=0.5;entryDx=0;entryDy=0;" parent="1" source="Y1mwOoL4pYymV-HB9AZI-4" target="Y1mwOoL4pYymV-HB9AZI-10" edge="1">
          <mxGeometry width="50" height="50" relative="1" as="geometry">
            <mxPoint x="110" y="280" as="sourcePoint" />
            <mxPoint x="450" y="280" as="targetPoint" />
          </mxGeometry>
        </mxCell>
        <mxCell id="Y1mwOoL4pYymV-HB9AZI-22" value="" style="endArrow=classic;html=1;entryX=0;entryY=0.5;entryDx=0;entryDy=0;exitX=1;exitY=1;exitDx=0;exitDy=0;exitPerimeter=0;" parent="1" source="Y1mwOoL4pYymV-HB9AZI-4" target="Y1mwOoL4pYymV-HB9AZI-11" edge="1">
          <mxGeometry width="50" height="50" relative="1" as="geometry">
            <mxPoint x="400" y="330" as="sourcePoint" />
            <mxPoint x="450" y="280" as="targetPoint" />
          </mxGeometry>
        </mxCell>
        <mxCell id="Y1mwOoL4pYymV-HB9AZI-23" value="http get Tax Order" style="text;html=1;strokeColor=none;fillColor=none;align=center;verticalAlign=middle;whiteSpace=wrap;rounded=0;" parent="1" vertex="1">
          <mxGeometry x="150" y="380" width="80" height="20" as="geometry" />
        </mxCell>
        <mxCell id="Y1mwOoL4pYymV-HB9AZI-24" value="http put Tax Order" style="text;html=1;strokeColor=none;fillColor=none;align=center;verticalAlign=middle;whiteSpace=wrap;rounded=0;" parent="1" vertex="1">
          <mxGeometry x="160" y="300" width="80" height="20" as="geometry" />
        </mxCell>
        <mxCell id="Y1mwOoL4pYymV-HB9AZI-25" value="Property Tax Payment Settlement&amp;nbsp;" style="text;strokeColor=none;fillColor=none;html=1;fontSize=24;fontStyle=1;verticalAlign=middle;align=center;" parent="1" vertex="1">
          <mxGeometry x="375" y="20" width="100" height="40" as="geometry" />
        </mxCell>
        <mxCell id="Y1mwOoL4pYymV-HB9AZI-34" value="&lt;ul&gt;&lt;li&gt;Spring Boot&lt;/li&gt;&lt;li&gt;Sprig Rest&lt;/li&gt;&lt;li&gt;Spring JPA&lt;/li&gt;&lt;li&gt;Mysql&lt;/li&gt;&lt;li&gt;Docker&lt;/li&gt;&lt;li&gt;GKE&lt;/li&gt;&lt;li&gt;Google Cloud Storage&lt;/li&gt;&lt;li&gt;Google Pub Sub&lt;/li&gt;&lt;li&gt;Postman&lt;/li&gt;&lt;/ul&gt;" style="text;strokeColor=none;fillColor=none;html=1;whiteSpace=wrap;verticalAlign=middle;overflow=hidden;" parent="1" vertex="1">
          <mxGeometry x="10" y="400" width="170" height="140" as="geometry" />
        </mxCell>
        <mxCell id="rD8upDjy4F1SKpqrhJvo-1" value="GKE" style="swimlane;" vertex="1" parent="1">
          <mxGeometry x="280" y="70" width="510" height="410" as="geometry" />
        </mxCell>
        <mxCell id="Y1mwOoL4pYymV-HB9AZI-5" value="Docker Container" style="swimlane;" parent="rD8upDjy4F1SKpqrhJvo-1" vertex="1">
          <mxGeometry x="40" y="40" width="250" height="100" as="geometry" />
        </mxCell>
        <mxCell id="Y1mwOoL4pYymV-HB9AZI-1" value="Taxamount Dataload Service&amp;nbsp;" style="ellipse;whiteSpace=wrap;html=1;" parent="Y1mwOoL4pYymV-HB9AZI-5" vertex="1">
          <mxGeometry x="35" y="30" width="190" height="60" as="geometry" />
        </mxCell>
        <mxCell id="Y1mwOoL4pYymV-HB9AZI-16" value="Tax Order" style="text;html=1;strokeColor=none;fillColor=none;align=center;verticalAlign=middle;whiteSpace=wrap;rounded=0;" parent="rD8upDjy4F1SKpqrhJvo-1" vertex="1">
          <mxGeometry x="380" y="120" width="60" height="20" as="geometry" />
        </mxCell>
        <mxCell id="rD8upDjy4F1SKpqrhJvo-2" value="GCS" style="outlineConnect=0;dashed=0;verticalLabelPosition=bottom;verticalAlign=top;align=center;html=1;shape=mxgraph.aws3.bucket;fillColor=#E05243;gradientColor=none;" vertex="1" parent="1">
          <mxGeometry x="35" y="145.57999999999998" width="40" height="50" as="geometry" />
        </mxCell>
        <mxCell id="rD8upDjy4F1SKpqrhJvo-3" value="" style="endArrow=classic;html=1;entryX=0.5;entryY=1;entryDx=0;entryDy=0;entryPerimeter=0;exitX=0.5;exitY=0;exitDx=0;exitDy=0;exitPerimeter=0;" edge="1" parent="1" source="Y1mwOoL4pYymV-HB9AZI-4" target="rD8upDjy4F1SKpqrhJvo-2">
          <mxGeometry width="50" height="50" relative="1" as="geometry">
            <mxPoint x="420" y="320" as="sourcePoint" />
            <mxPoint x="470" y="270" as="targetPoint" />
          </mxGeometry>
        </mxCell>
        <mxCell id="rD8upDjy4F1SKpqrhJvo-6" value="" style="outlineConnect=0;fontColor=#232F3E;gradientColor=none;fillColor=#277116;strokeColor=none;dashed=0;verticalLabelPosition=bottom;verticalAlign=top;align=center;html=1;fontSize=12;fontStyle=0;aspect=fixed;pointerEvents=1;shape=mxgraph.aws4.topic_2;rotation=90;" vertex="1" parent="1">
          <mxGeometry x="184.08" y="140.25" width="40.6" height="59.75" as="geometry" />
        </mxCell>
        <mxCell id="rD8upDjy4F1SKpqrhJvo-8" value="" style="endArrow=classic;html=1;exitX=0.94;exitY=0.5;exitDx=0;exitDy=0;exitPerimeter=0;" edge="1" parent="1" source="rD8upDjy4F1SKpqrhJvo-2" target="rD8upDjy4F1SKpqrhJvo-6">
          <mxGeometry width="50" height="50" relative="1" as="geometry">
            <mxPoint x="420" y="320" as="sourcePoint" />
            <mxPoint x="470" y="270" as="targetPoint" />
          </mxGeometry>
        </mxCell>
        <mxCell id="rD8upDjy4F1SKpqrhJvo-10" value="Notification" style="text;html=1;strokeColor=none;fillColor=none;align=center;verticalAlign=middle;whiteSpace=wrap;rounded=0;" vertex="1" parent="1">
          <mxGeometry x="80" y="135.12" width="80" height="20" as="geometry" />
        </mxCell>
        <mxCell id="rD8upDjy4F1SKpqrhJvo-13" value="PubSub" style="swimlane;" vertex="1" parent="1">
          <mxGeometry x="160" y="125.58000000000001" width="90" height="70" as="geometry" />
        </mxCell>
        <mxCell id="rD8upDjy4F1SKpqrhJvo-14" value="" style="endArrow=classic;html=1;entryX=0;entryY=0.5;entryDx=0;entryDy=0;" edge="1" parent="1" source="rD8upDjy4F1SKpqrhJvo-6" target="Y1mwOoL4pYymV-HB9AZI-1">
          <mxGeometry width="50" height="50" relative="1" as="geometry">
            <mxPoint x="420" y="320" as="sourcePoint" />
            <mxPoint x="470" y="270" as="targetPoint" />
          </mxGeometry>
        </mxCell>
      </root>
    </mxGraphModel>
  </diagram>
</mxfile>
